<svg xmlns="http://www.w3.org/2000/svg" viewBox="0 0 200 200">
  <rect width="100%" height="100%" fill="#f8f9fa" />

  <defs>
    <path id="gear-segment" 
          d="M -22.26 -83.07 A 86 86 0 0 1 -11.23 -85.26 L -9.39 -97.55 A 98 98 0 0 1 9.39 -97.55 L 11.23 -85.26 A 86 86 0 0 1 22.26 -83.07" 
          fill="none" />

    <path id="ring-arc" 
          d="M 13.31 -62.60 A 64 64 0 0 1 62.60 -13.31" 
          fill="none" />

    <g id="short-point">
      <polygon points="0,-60 0,0 -12,-22" fill="#f8f9fa" stroke="#333333" stroke-width="4" stroke-linejoin="round" />
      <polygon points="0,-60 0,0 12,-22" fill="#f8f9fa" stroke="#333333" stroke-width="4" stroke-linejoin="round" />
    </g>

    <g id="long-point">
      <polygon points="0,-80 0,0 -16,-22" fill="#f8f9fa" stroke="#333333" stroke-width="4" stroke-linejoin="round" />
      <polygon points="0,-80 0,0 16,-22" fill="#f8f9fa" stroke="#333333" stroke-width="4" stroke-linejoin="round" />
    </g>
  </defs>

  <g transform="translate(100, 100)" stroke="#333333" stroke-width="4" stroke-linejoin="round">
    <use href="#gear-segment" />
    <use href="#gear-segment" transform="rotate(30)" />
    <use href="#gear-segment" transform="rotate(60)" />
    <use href="#gear-segment" transform="rotate(90)" />
    <use href="#gear-segment" transform="rotate(120)" />
    <use href="#gear-segment" transform="rotate(150)" />
    <use href="#gear-segment" transform="rotate(180)" />
    <use href="#gear-segment" transform="rotate(210)" />
    <use href="#gear-segment" transform="rotate(240)" />
    <use href="#gear-segment" transform="rotate(270)" />
    <use href="#gear-segment" transform="rotate(300)" />
    <use href="#gear-segment" transform="rotate(330)" />
  </g>

  <g transform="translate(100, 100)" stroke="#333333" stroke-width="4">
    <use href="#ring-arc" transform="rotate(0)" />
    <use href="#ring-arc" transform="rotate(90)" />
    <use href="#ring-arc" transform="rotate(180)" />
    <use href="#ring-arc" transform="rotate(270)" />
  </g>

  <g transform="translate(100, 100)">
    <use href="#short-point" transform="rotate(45)" />
    <use href="#short-point" transform="rotate(135)" />
    <use href="#short-point" transform="rotate(225)" />
    <use href="#short-point" transform="rotate(315)" />
  </g>

  <g transform="translate(100, 100)">
    <use href="#long-point" transform="rotate(0)" />
    <use href="#long-point" transform="rotate(90)" />
    <use href="#long-point" transform="rotate(180)" />
    <use href="#long-point" transform="rotate(270)" />
  </g>

  <circle cx="100" cy="100" r="20" fill="#f8f9fa" stroke="#333333" stroke-width="4" />

</svg>
